<svg width="20" height="20" viewBox="0 0 20 20" fill="none" xmlns="http://www.w3.org/2000/svg">
<path d="M3.76823 10.1406L5.66667 9.44918C5.72526 9.42578 5.79557 9.41406 5.86584 9.41406H18.0299C18.3581 9.41406 18.6158 9.67184 18.6158 10V18.2422C18.6158 19.2148 17.8307 20 16.858 20H5.13928C4.16659 20 3.38147 19.2148 3.38147 18.2422V10.6914C3.38147 10.4453 3.53385 10.2227 3.76823 10.1406Z" fill="#FC1A40"/>
<path d="M3.38147 10.6914V18.2422C3.38147 19.2148 4.16659 20 5.13928 20H10.9987V9.41406H5.86584C5.79553 9.41406 5.72522 9.42578 5.66667 9.44918L3.76823 10.1406C3.53385 10.2227 3.38147 10.4453 3.38147 10.6914Z" fill="#C60034"/>
<path d="M3.59247 3.81984C3.79165 3.01124 4.38935 2.37847 5.19794 2.12062C5.99481 1.87449 6.85032 2.05031 7.47138 2.61277L8.83079 3.80812L9.10028 2.01519C9.22919 1.19488 9.75653 0.50343 10.5416 0.175344C10.694 0.116712 10.8463 0.0698366 10.9987 0.0463991C11.6432 -0.0825072 12.3112 0.0581178 12.8503 0.456594C13.5651 0.972219 13.9284 1.83941 13.8112 2.70656C13.6823 3.57374 13.0963 4.31202 12.2643 4.60499L10.9987 5.06202L9.44009 5.63624C9.42837 5.63624 9.42837 5.63624 9.42837 5.63624L6.72134 6.6323C6.45185 6.72609 6.1706 6.773 5.90106 6.773C5.32677 6.773 4.76431 6.56199 4.31899 6.16359C3.66278 5.57765 3.38153 4.67527 3.59247 3.81984Z" fill="#FE9923"/>
<path d="M4.31897 6.16361C4.76428 6.56201 5.32678 6.77303 5.90104 6.77303C6.17053 6.77303 6.45178 6.72611 6.72131 6.63232L9.42834 5.63627C9.42834 5.63627 9.42834 5.63627 9.44006 5.63627L10.9987 5.06205V0.0463867C10.8463 0.0698633 10.694 0.116699 10.5416 0.175332C9.75651 0.503418 9.22913 1.19486 9.10026 2.01518L8.83077 3.80811L7.47135 2.61275C6.8503 2.05029 5.99479 1.87447 5.19792 2.12061C4.38932 2.37846 3.79167 3.01123 3.59245 3.81982C3.38147 4.67529 3.66272 5.57768 4.31897 6.16361Z" fill="#FE8821"/>
<path d="M1.37758 9.1445L2.17446 11.3476C2.26824 11.582 2.4909 11.7226 2.72528 11.7226C2.79559 11.7226 2.8659 11.7109 2.92445 11.6875L8.98309 9.48439L9.53383 7.66798L10.9987 7.99607L12.2877 8.28904L18.3463 6.08591C18.651 5.96876 18.8033 5.62888 18.6979 5.33591L17.8893 3.13286C17.737 2.68755 17.4088 2.33591 16.9869 2.13673C16.565 1.93755 16.0846 1.91408 15.6393 2.07814L10.9986 3.76564L10.6822 3.88279C10.6822 3.88279 9.4166 6.1797 9.38141 6.1797C9.35793 6.1797 8.85406 5.89845 8.36188 5.62888C7.86981 5.35935 7.37758 5.07814 7.37758 5.07814L2.43231 6.88279C1.98699 7.04685 1.63543 7.37501 1.43625 7.79689C1.23696 8.21872 1.21356 8.69923 1.37758 9.1445Z" fill="#FF3E75"/>
<path d="M1.37756 9.14449L2.17444 11.3476C2.26823 11.582 2.49088 11.7226 2.72526 11.7226C2.79557 11.7226 2.86588 11.7109 2.92444 11.6875L8.98307 9.48438L9.53381 7.66797L10.9987 7.99605V3.76562L10.6822 3.88277C10.6822 3.88277 9.41663 6.17969 9.38143 6.17969C9.35795 6.17969 8.85409 5.89844 8.3619 5.62887C7.86979 5.35934 7.37756 5.07812 7.37756 5.07812L2.43229 6.88277C1.98698 7.04684 1.63542 7.375 1.43624 7.79688C1.23694 8.21871 1.21354 8.69922 1.37756 9.14449Z" fill="#FC1A40"/>
<path d="M12.7565 9.41394V19.9999H9.24084V9.41394H12.7565Z" fill="#FCBF29"/>
<path d="M10.6823 3.88269L10.9987 4.74988L12.2877 8.28898L10.9987 8.75777L9.53385 9.28511L8.98311 9.48429L7.37756 5.07804L10.6823 3.88269Z" fill="#FCBF29"/>
<path d="M9.24072 9.41394H10.9985V19.9999H9.24072V9.41394Z" fill="#FE9923"/>
<path d="M7.37756 5.07804L8.98307 9.48429L9.53381 9.28507L10.9987 8.75773V4.74988L10.6823 3.88269L7.37756 5.07804Z" fill="#FE9923"/>
</svg>
